<svg width="7316" height="1376" viewBox="0 0 7316 1376" fill="none" xmlns="http://www.w3.org/2000/svg">
<g filter="url(#filter0_f)">
<path d="M4362.7 925.984C4379.23 865.295 5390.97 867.749 5233.33 838.589C5106.08 815.053 4230.84 907.103 4067.91 890.485C3734.62 856.492 5727.74 466.914 4020.82 782.638C3591.83 861.988 2566.47 935.73 2567 941.97C2570.43 981.905 3475.11 923.039 3532.29 957.956C3635.84 1021.18 3629 1115.6 3832.97 1100.36C3961.7 1090.74 3699.02 962.052 3832.97 957.956C4042.24 951.557 4343.36 997.016 4362.7 925.984Z" fill="white"/>
</g>
<g filter="url(#filter1_f)">
<path d="M5820.37 974.873C5750.13 990.166 5251.3 955.486 5205.86 964.031C5094.95 984.886 5050.83 987.654 5038.93 982.152C5030.34 978.186 5029.22 952.67 5029.02 921.221C4989.28 922.095 4978.99 941.375 4969.49 945.113C4931.93 959.882 4854.84 926.375 4862.28 927.315C4870.01 928.292 4958.37 880.691 4862.22 858.953C4766.06 837.215 4964.72 787.518 4993.64 784.779C5031.56 781.187 5028.64 861.795 5029.02 921.221C5146.29 918.641 5366.99 923.585 5446.82 913.476L5548.5 932.535C5513.07 940.692 5876.79 962.591 5820.37 974.873Z" fill="white"/>
<path d="M5820.37 974.873C5750.13 990.166 5251.3 955.486 5205.86 964.031C5094.95 984.886 5050.83 987.654 5038.93 982.152C5030.34 978.186 5029.22 952.67 5029.02 921.221C4989.28 922.095 4978.99 941.375 4969.49 945.113C4931.93 959.882 4854.84 926.375 4862.28 927.315C4870.01 928.292 4958.37 880.691 4862.22 858.953C4766.06 837.215 4964.72 787.518 4993.64 784.779C5031.56 781.187 5028.64 861.795 5029.02 921.221C5146.29 918.641 5366.99 923.585 5446.82 913.476L5548.5 932.535C5513.07 940.692 5876.79 962.591 5820.37 974.873Z" stroke="black"/>
<path d="M5820.37 974.873C5750.13 990.166 5251.3 955.486 5205.86 964.031C5094.95 984.886 5050.83 987.654 5038.93 982.152C5030.34 978.186 5029.22 952.67 5029.02 921.221C4989.28 922.095 4978.99 941.375 4969.49 945.113C4931.93 959.882 4854.84 926.375 4862.28 927.315C4870.01 928.292 4958.37 880.691 4862.22 858.953C4766.06 837.215 4964.72 787.518 4993.64 784.779C5031.56 781.187 5028.64 861.795 5029.02 921.221C5146.29 918.641 5366.99 923.585 5446.82 913.476L5548.5 932.535C5513.07 940.692 5876.79 962.591 5820.37 974.873Z" stroke="url(#paint0_linear)"/>
</g>
<g filter="url(#filter2_f)">
<path d="M1034.29 918.873C964.036 934.166 465.209 899.486 419.766 908.031C308.857 928.886 264.746 931.654 252.836 926.152C244.252 922.186 243.13 896.67 242.931 865.221C203.192 866.095 192.903 885.375 183.398 889.113C145.842 903.882 68.7511 870.375 76.1941 871.315C83.9238 872.292 172.285 824.691 76.1274 802.953C-20.0297 781.215 178.635 731.518 207.551 728.779C245.469 725.187 242.554 805.795 242.931 865.221C360.201 862.641 580.905 867.585 660.731 857.476L762.411 876.535C726.978 884.692 1090.7 906.591 1034.29 918.873Z" fill="white"/>
</g>
<g filter="url(#filter3_f)">
<path d="M2114.29 922.873C2044.04 938.166 1545.21 903.486 1499.77 912.031C1388.86 932.886 1344.75 935.654 1332.84 930.152C1324.25 926.186 1323.13 900.67 1322.93 869.221C1283.19 870.095 1272.9 889.375 1263.4 893.113C1225.84 907.882 1148.75 874.375 1156.19 875.315C1163.92 876.292 1252.28 828.691 1156.13 806.953C1059.97 785.215 1258.64 735.518 1287.55 732.779C1325.47 729.187 1322.55 809.795 1322.93 869.221C1440.2 866.641 1660.91 871.585 1740.73 861.476L1842.41 880.535C1806.98 888.692 2170.7 910.591 2114.29 922.873Z" fill="white"/>
<path d="M2114.29 922.873C2044.04 938.166 1545.21 903.486 1499.77 912.031C1388.86 932.886 1344.75 935.654 1332.84 930.152C1324.25 926.186 1323.13 900.67 1322.93 869.221C1283.19 870.095 1272.9 889.375 1263.4 893.113C1225.84 907.882 1148.75 874.375 1156.19 875.315C1163.92 876.292 1252.28 828.691 1156.13 806.953C1059.97 785.215 1258.64 735.518 1287.55 732.779C1325.47 729.187 1322.55 809.795 1322.93 869.221C1440.2 866.641 1660.91 871.585 1740.73 861.476L1842.41 880.535C1806.98 888.692 2170.7 910.591 2114.29 922.873Z" stroke="black"/>
<path d="M2114.29 922.873C2044.04 938.166 1545.21 903.486 1499.77 912.031C1388.86 932.886 1344.75 935.654 1332.84 930.152C1324.25 926.186 1323.13 900.67 1322.93 869.221C1283.19 870.095 1272.9 889.375 1263.4 893.113C1225.84 907.882 1148.75 874.375 1156.19 875.315C1163.92 876.292 1252.28 828.691 1156.13 806.953C1059.97 785.215 1258.64 735.518 1287.55 732.779C1325.47 729.187 1322.55 809.795 1322.93 869.221C1440.2 866.641 1660.91 871.585 1740.73 861.476L1842.41 880.535C1806.98 888.692 2170.7 910.591 2114.29 922.873Z" stroke="url(#paint1_linear)"/>
</g>
<g filter="url(#filter4_f)">
<path d="M2878.29 680.873C2808.04 696.166 2309.21 661.486 2263.77 670.031C2152.86 690.886 2108.75 693.654 2096.84 688.152C2088.25 684.186 2087.13 658.67 2086.93 627.221C2047.19 628.095 2036.9 647.375 2027.4 651.113C1989.84 665.882 1912.75 632.375 1920.19 633.315C1927.92 634.292 2016.28 586.691 1920.13 564.953C1823.97 543.215 2022.64 493.518 2051.55 490.779C2089.47 487.187 2086.55 567.795 2086.93 627.221C2204.2 624.641 2424.91 629.585 2504.73 619.476L2606.41 638.535C2570.98 646.692 2934.7 668.591 2878.29 680.873Z" fill="white"/>
<path d="M2878.29 680.873C2808.04 696.166 2309.21 661.486 2263.77 670.031C2152.86 690.886 2108.75 693.654 2096.84 688.152C2088.25 684.186 2087.13 658.67 2086.93 627.221C2047.19 628.095 2036.9 647.375 2027.4 651.113C1989.84 665.882 1912.75 632.375 1920.19 633.315C1927.92 634.292 2016.28 586.691 1920.13 564.953C1823.97 543.215 2022.64 493.518 2051.55 490.779C2089.47 487.187 2086.55 567.795 2086.93 627.221C2204.2 624.641 2424.91 629.585 2504.73 619.476L2606.41 638.535C2570.98 646.692 2934.7 668.591 2878.29 680.873Z" stroke="black"/>
<path d="M2878.29 680.873C2808.04 696.166 2309.21 661.486 2263.77 670.031C2152.86 690.886 2108.75 693.654 2096.84 688.152C2088.25 684.186 2087.13 658.67 2086.93 627.221C2047.19 628.095 2036.9 647.375 2027.4 651.113C1989.84 665.882 1912.75 632.375 1920.19 633.315C1927.92 634.292 2016.28 586.691 1920.13 564.953C1823.97 543.215 2022.64 493.518 2051.55 490.779C2089.47 487.187 2086.55 567.795 2086.93 627.221C2204.2 624.641 2424.91 629.585 2504.73 619.476L2606.41 638.535C2570.98 646.692 2934.7 668.591 2878.29 680.873Z" stroke="url(#paint2_linear)"/>
</g>
<g filter="url(#filter5_f)">
<path d="M4830.28 579.873C4760.04 595.166 4261.21 560.486 4215.77 569.031C4104.86 589.886 4060.74 592.654 4048.84 587.152C4040.25 583.186 4039.13 557.67 4038.93 526.221C3999.19 527.095 3988.9 546.375 3979.4 550.113C3941.84 564.882 3864.75 531.375 3872.19 532.315C3879.92 533.292 3968.28 485.691 3872.13 463.953C3775.97 442.215 3974.63 392.518 4003.55 389.779C4041.47 386.187 4038.55 466.795 4038.93 526.221C4156.2 523.641 4376.9 528.585 4456.73 518.476L4558.41 537.535C4522.98 545.692 4886.7 567.591 4830.28 579.873Z" fill="white"/>
<path d="M4830.28 579.873C4760.04 595.166 4261.21 560.486 4215.77 569.031C4104.86 589.886 4060.74 592.654 4048.84 587.152C4040.25 583.186 4039.13 557.67 4038.93 526.221C3999.19 527.095 3988.9 546.375 3979.4 550.113C3941.84 564.882 3864.75 531.375 3872.19 532.315C3879.92 533.292 3968.28 485.691 3872.13 463.953C3775.97 442.215 3974.63 392.518 4003.55 389.779C4041.47 386.187 4038.55 466.795 4038.93 526.221C4156.2 523.641 4376.9 528.585 4456.73 518.476L4558.41 537.535C4522.98 545.692 4886.7 567.591 4830.28 579.873Z" stroke="black"/>
<path d="M4830.28 579.873C4760.04 595.166 4261.21 560.486 4215.77 569.031C4104.86 589.886 4060.74 592.654 4048.84 587.152C4040.25 583.186 4039.13 557.67 4038.93 526.221C3999.19 527.095 3988.9 546.375 3979.4 550.113C3941.84 564.882 3864.75 531.375 3872.19 532.315C3879.92 533.292 3968.28 485.691 3872.13 463.953C3775.97 442.215 3974.63 392.518 4003.55 389.779C4041.47 386.187 4038.55 466.795 4038.93 526.221C4156.2 523.641 4376.9 528.585 4456.73 518.476L4558.41 537.535C4522.98 545.692 4886.7 567.591 4830.28 579.873Z" stroke="url(#paint3_linear)"/>
</g>
<g filter="url(#filter6_f)">
<path d="M111.066 1021.88C126.922 1009.04 249.387 1023.74 259.737 1016.43C284.997 998.593 295.424 995.583 298.67 999.387C301.01 1002.13 303.039 1020.95 305.254 1044.18C314.76 1042.67 315.908 1028.2 317.938 1025.23C325.96 1013.5 346.826 1036.56 344.97 1036.03C343.042 1035.48 325.053 1072.58 349.698 1086.53C374.343 1100.49 329.947 1141.55 323.175 1144.21C314.295 1147.69 309.441 1088.08 305.254 1044.18C277.203 1048.66 223.736 1049.84 205.218 1059.05L179.428 1047.2C187.395 1040.4 98.3319 1032.19 111.066 1021.88Z" fill="white"/>
</g>
<g filter="url(#filter7_f)">
<path d="M2534.29 240.873C2464.04 256.166 1965.21 221.486 1919.77 230.031C1808.86 250.886 1764.75 253.654 1752.84 248.152C1744.25 244.186 1743.13 218.67 1742.93 187.221C1703.19 188.095 1692.9 207.375 1683.4 211.113C1645.84 225.882 1568.75 192.375 1576.19 193.315C1583.92 194.292 1672.28 146.691 1576.13 124.953C1479.97 103.215 1678.63 53.5176 1707.55 50.7787C1745.47 47.1873 1742.55 127.795 1742.93 187.221C1860.2 184.641 2080.91 189.585 2160.73 179.476L2262.41 198.535C2226.98 206.692 2590.7 228.591 2534.29 240.873Z" fill="white"/>
</g>
<g filter="url(#filter8_f)">
<path d="M3874.32 1130.96C3918.53 1113.56 4251.11 1070.5 4279.88 1060C4350.1 1034.38 4378.75 1027.29 4387.3 1028.89C4393.46 1030.04 4397.53 1044.24 4401.77 1061.88C4427.79 1056.41 4432.04 1044.29 4437.8 1040.99C4460.57 1027.99 4515.65 1037.15 4510.63 1037.55C4505.42 1037.97 4453.53 1075.79 4519.61 1075.95C4585.68 1076.11 4461.52 1128.94 4442.86 1134.1C4418.39 1140.87 4409.78 1095.22 4401.77 1061.88C4324.99 1078.03 4179.19 1102.93 4128.01 1118.62L4058.65 1120.66C4080.89 1111.63 3838.82 1144.93 3874.32 1130.96Z" fill="white"/>
<path d="M3874.32 1130.96C3918.53 1113.56 4251.11 1070.5 4279.88 1060C4350.1 1034.38 4378.75 1027.29 4387.3 1028.89C4393.46 1030.04 4397.53 1044.24 4401.77 1061.88C4427.79 1056.41 4432.04 1044.29 4437.8 1040.99C4460.57 1027.99 4515.65 1037.15 4510.63 1037.55C4505.42 1037.97 4453.53 1075.79 4519.61 1075.95C4585.68 1076.11 4461.52 1128.94 4442.86 1134.1C4418.39 1140.87 4409.78 1095.22 4401.77 1061.88C4324.99 1078.03 4179.19 1102.93 4128.01 1118.62L4058.65 1120.66C4080.89 1111.63 3838.82 1144.93 3874.32 1130.96Z" stroke="black"/>
<path d="M3874.32 1130.96C3918.53 1113.56 4251.11 1070.5 4279.88 1060C4350.1 1034.38 4378.75 1027.29 4387.3 1028.89C4393.46 1030.04 4397.53 1044.24 4401.77 1061.88C4427.79 1056.41 4432.04 1044.29 4437.8 1040.99C4460.57 1027.99 4515.65 1037.15 4510.63 1037.55C4505.42 1037.97 4453.53 1075.79 4519.61 1075.95C4585.68 1076.11 4461.52 1128.94 4442.86 1134.1C4418.39 1140.87 4409.78 1095.22 4401.77 1061.88C4324.99 1078.03 4179.19 1102.93 4128.01 1118.62L4058.65 1120.66C4080.89 1111.63 3838.82 1144.93 3874.32 1130.96Z" stroke="url(#paint4_linear)"/>
</g>
<g filter="url(#filter9_f)">
<path d="M5273.67 1183.45C5332.87 1212.64 4952.98 1210.18 4946.78 1270.92C4939.51 1342.02 4826.45 1296.52 4747.87 1302.92C4729.25 1304.44 4688.88 1279.44 4642.98 1247.85C4609.55 1252.86 4575.15 1256.63 4542.95 1259.53C4557.32 1270.3 4571.45 1280.22 4584.25 1288.58C4609.87 1289.91 4629.32 1293.72 4634.98 1302.92C4648 1324.12 4621.88 1313.14 4584.25 1288.58C4512.62 1284.83 4392.82 1300.36 4391.87 1270.92C4391.8 1268.69 4460.11 1266.99 4542.95 1259.53C4473.46 1207.49 4398.3 1135.86 4440.5 1127.45C4470.93 1121.39 4564.95 1194.15 4642.98 1247.85C4747.24 1232.22 4842.1 1204.51 4831.67 1153.49C4762.79 1150.24 4708.36 1146.63 4690.23 1141.71C4565.08 1107.68 4780.84 1079.71 4818.41 1127.45C4825.72 1136.74 4830.01 1145.41 4831.67 1153.49C4995.18 1161.19 5240.06 1166.88 5273.67 1183.45Z" fill="white"/>
</g>
<g filter="url(#filter10_f)">
<path d="M1073.8 366.451C1132.99 395.637 753.106 393.18 746.901 453.923C739.64 525.016 626.575 479.518 547.999 485.923C529.372 487.441 489.007 462.443 443.107 430.851C409.675 435.864 375.277 439.635 343.075 442.534C357.446 453.297 371.576 463.222 384.374 471.576C409.991 472.914 429.447 476.717 435.103 485.923C448.128 507.124 422.001 496.137 384.374 471.576C312.745 467.834 192.948 483.364 192 453.923C191.928 451.687 260.234 449.994 343.075 442.534C273.582 390.492 198.42 318.857 240.621 310.451C271.053 304.389 365.079 377.147 443.107 430.851C547.363 415.219 642.225 387.511 631.791 336.486C562.919 333.24 508.484 329.635 490.353 324.706C365.209 290.683 580.964 262.706 618.535 310.451C625.847 319.744 630.139 328.407 631.791 336.486C795.301 344.193 1040.18 349.876 1073.8 366.451Z" fill="white"/>
</g>
<g filter="url(#filter11_f)">
<path d="M3070.91 745.321C3156.83 872.28 2605.43 861.593 2596.43 1125.83C2585.89 1435.09 2421.78 1237.17 2307.73 1265.03C2280.69 1271.64 2222.1 1162.89 2155.48 1025.47C2106.95 1047.27 2057.02 1063.67 2010.28 1076.29C2031.14 1123.11 2051.65 1166.28 2070.23 1202.62C2107.41 1208.44 2135.65 1224.99 2143.86 1265.03C2162.76 1357.26 2124.84 1309.46 2070.23 1202.62C1966.26 1186.34 1792.38 1253.9 1791 1125.83C1790.9 1116.1 1890.04 1108.74 2010.28 1076.29C1909.41 849.899 1800.32 538.282 1861.57 501.715C1905.74 475.345 2042.22 791.848 2155.48 1025.47C2306.8 957.466 2444.49 836.93 2429.35 614.969C2329.38 600.848 2250.37 585.166 2224.05 563.723C2042.41 415.72 2355.57 294.018 2410.11 501.715C2420.72 542.139 2426.95 579.825 2429.35 614.969C2666.68 648.494 3022.12 673.217 3070.91 745.321Z" fill="white"/>
</g>
<g filter="url(#filter12_f)">
<path d="M5735.75 773.471C5741.96 712.728 5662.34 702.657 5603.15 673.471C5555.37 649.914 5686.24 754.573 5625.07 737.941C5499.92 703.918 5096.87 785.892 5178.83 673.471C5182.63 668.256 4926.5 783.226 4926.7 789.471C4927.99 829.441 5181.67 754.523 5203.14 789.471C5242.02 852.755 5356.21 788.727 5432.8 773.471C5481.13 763.844 5486.56 809.571 5536.85 805.471C5615.43 799.067 5728.49 844.565 5735.75 773.471Z" fill="white"/>
</g>
<g filter="url(#filter13_f)">
<path d="M3080.05 592.471C3086.26 531.728 3006.64 521.657 2947.45 492.471C2899.67 468.914 3030.54 573.573 2969.37 556.941C2844.22 522.918 2441.17 604.892 2523.13 492.471C2526.93 487.256 2270.8 602.226 2271 608.471C2272.29 648.441 2525.97 573.523 2547.44 608.471C2586.32 671.755 2700.51 607.727 2777.1 592.471C2825.43 582.844 2830.86 628.571 2881.15 624.471C2959.73 618.067 3072.79 663.565 3080.05 592.471Z" fill="white"/>
</g>
<g filter="url(#filter14_f)">
<path d="M6197.59 858.739C6227.18 860.637 6425.31 813.569 6444.33 814.227C6490.76 815.834 6508.77 814.137 6513.11 811.038C6516.24 808.805 6514.57 797.949 6512.04 784.645C6528.12 782.433 6533.87 789.912 6538.01 790.874C6554.38 794.675 6582.66 775.506 6579.74 776.387C6576.7 777.302 6537.14 762.927 6574.08 747.493C6611.02 732.058 6526.83 723.965 6514.95 724.686C6499.37 725.632 6507.25 759.508 6512.04 784.645C6464.56 791.175 6376.03 807.605 6343.02 808.52C6340.49 808.59 6338.02 808.635 6335.61 808.656C6372.28 798.689 6399.73 791.423 6403.04 791.289C6347.76 768.669 6385.32 762.635 6355.25 748.528C6350.41 746.256 6357.64 742.62 6342.12 742.894C6330.56 743.098 6315.87 751.207 6302.94 756.919C6245.19 782.422 6254.46 809.358 6335.61 808.656C6320.06 812.884 6302.84 817.599 6285.11 822.461C6188.56 821.991 6057.04 867.845 6118.27 866.52C6125.33 866.367 6209.9 843.083 6285.11 822.461C6291.46 822.492 6297.65 822.723 6303.63 823.181C6318.59 824.326 6173.84 857.214 6197.59 858.739Z" fill="white"/>
<path d="M6197.59 858.739C6227.18 860.637 6425.31 813.569 6444.33 814.227C6490.76 815.834 6508.77 814.137 6513.11 811.038C6516.24 808.805 6514.57 797.949 6512.04 784.645C6528.12 782.433 6533.87 789.912 6538.01 790.874C6554.38 794.675 6582.66 775.506 6579.74 776.387C6576.7 777.302 6537.14 762.927 6574.08 747.493C6611.02 732.058 6526.83 723.965 6514.95 724.686C6499.37 725.632 6507.25 759.508 6512.04 784.645C6464.56 791.175 6376.03 807.605 6343.02 808.52C6340.49 808.59 6338.02 808.635 6335.61 808.656C6372.28 798.689 6399.73 791.423 6403.04 791.289C6347.76 768.669 6385.32 762.635 6355.25 748.528C6350.41 746.256 6357.64 742.62 6342.12 742.894C6330.56 743.098 6315.87 751.207 6302.94 756.919C6245.19 782.422 6254.46 809.358 6335.61 808.656C6320.06 812.884 6302.84 817.599 6285.11 822.461C6188.56 821.991 6057.04 867.845 6118.27 866.52C6125.33 866.367 6209.9 843.083 6285.11 822.461C6291.46 822.492 6297.65 822.723 6303.63 823.181C6318.59 824.326 6173.84 857.214 6197.59 858.739Z" stroke="black"/>
</g>
<g filter="url(#filter15_f)">
<path d="M1949.63 1082.74C1979.21 1084.64 2177.35 1037.57 2196.37 1038.23C2242.8 1039.83 2260.81 1038.14 2265.15 1035.04C2268.28 1032.8 2266.61 1021.95 2264.07 1008.65C2280.16 1006.43 2285.91 1013.91 2290.05 1014.87C2306.42 1018.67 2334.7 999.506 2331.77 1000.39C2328.74 1001.3 2289.17 986.927 2326.12 971.493C2363.06 956.058 2278.87 947.965 2266.99 948.686C2251.41 949.632 2259.28 983.508 2264.07 1008.65C2216.6 1015.18 2128.07 1031.61 2095.06 1032.52C2092.53 1032.59 2090.06 1032.64 2087.65 1032.66C2124.32 1022.69 2151.77 1015.42 2155.08 1015.29C2099.8 992.669 2137.36 986.635 2107.29 972.528C2102.45 970.256 2109.68 966.62 2094.16 966.894C2082.59 967.098 2067.91 975.207 2054.97 980.919C1997.22 1006.42 2006.5 1033.36 2087.65 1032.66C2072.1 1036.88 2054.88 1041.6 2037.15 1046.46C1940.59 1045.99 1809.08 1091.85 1870.31 1090.52C1877.36 1090.37 1961.93 1067.08 2037.15 1046.46C2043.5 1046.49 2049.69 1046.72 2055.67 1047.18C2070.63 1048.33 1925.87 1081.21 1949.63 1082.74Z" fill="white"/>
<path d="M1949.63 1082.74C1979.21 1084.64 2177.35 1037.57 2196.37 1038.23C2242.8 1039.83 2260.81 1038.14 2265.15 1035.04C2268.28 1032.8 2266.61 1021.95 2264.07 1008.65C2280.16 1006.43 2285.91 1013.91 2290.05 1014.87C2306.42 1018.67 2334.7 999.506 2331.77 1000.39C2328.74 1001.3 2289.17 986.927 2326.12 971.493C2363.06 956.058 2278.87 947.965 2266.99 948.686C2251.41 949.632 2259.28 983.508 2264.07 1008.65C2216.6 1015.18 2128.07 1031.61 2095.06 1032.52C2092.53 1032.59 2090.06 1032.64 2087.65 1032.66C2124.32 1022.69 2151.77 1015.42 2155.08 1015.29C2099.8 992.669 2137.36 986.635 2107.29 972.528C2102.45 970.256 2109.68 966.62 2094.16 966.894C2082.59 967.098 2067.91 975.207 2054.97 980.919C1997.22 1006.42 2006.5 1033.36 2087.65 1032.66C2072.1 1036.88 2054.88 1041.6 2037.15 1046.46C1940.59 1045.99 1809.08 1091.85 1870.31 1090.52C1877.36 1090.37 1961.93 1067.08 2037.15 1046.46C2043.5 1046.49 2049.69 1046.72 2055.67 1047.18C2070.63 1048.33 1925.87 1081.21 1949.63 1082.74Z" stroke="black"/>
</g>
<g filter="url(#filter16_f)">
<path d="M5994.54 1242.2C6000.78 1217.28 6124.3 1101.02 6129.08 1085.47C6140.75 1047.53 6148.44 1034.78 6153.98 1033.98C6157.96 1033.41 6172.31 1043.92 6189.74 1057.17C6197.57 1046.37 6189.06 1035.51 6188.98 1031.43C6188.67 1015.32 6223.32 1009.27 6221.24 1010.83C6219.09 1012.44 6226.92 1055.78 6259.05 1039.74C6291.19 1023.7 6277.11 1096.88 6272.57 1105.63C6266.63 1117.11 6222.67 1082.23 6189.74 1057.17C6166.63 1089.05 6131.61 1195.77 6120.5 1221L6074.82 1188.75C6077.72 1176 5989.53 1262.21 5994.54 1242.2Z" fill="white"/>
<path d="M5994.54 1242.2C6000.78 1217.28 6124.3 1101.02 6129.08 1085.47C6140.75 1047.53 6148.44 1034.78 6153.98 1033.98C6157.96 1033.41 6172.31 1043.92 6189.74 1057.17C6197.57 1046.37 6189.06 1035.51 6188.98 1031.43C6188.67 1015.32 6223.32 1009.27 6221.24 1010.83C6219.09 1012.44 6226.92 1055.78 6259.05 1039.74C6291.19 1023.7 6277.11 1096.88 6272.57 1105.63C6266.63 1117.11 6222.67 1082.23 6189.74 1057.17C6166.63 1089.05 6131.61 1195.77 6120.5 1221L6074.82 1188.75C6077.72 1176 5989.53 1262.21 5994.54 1242.2Z" stroke="black"/>
<path d="M5994.54 1242.2C6000.78 1217.28 6124.3 1101.02 6129.08 1085.47C6140.75 1047.53 6148.44 1034.78 6153.98 1033.98C6157.96 1033.41 6172.31 1043.92 6189.74 1057.17C6197.57 1046.37 6189.06 1035.51 6188.98 1031.43C6188.67 1015.32 6223.32 1009.27 6221.24 1010.83C6219.09 1012.44 6226.92 1055.78 6259.05 1039.74C6291.19 1023.7 6277.11 1096.88 6272.57 1105.63C6266.63 1117.11 6222.67 1082.23 6189.74 1057.17C6166.63 1089.05 6131.61 1195.77 6120.5 1221L6074.82 1188.75C6077.72 1176 5989.53 1262.21 5994.54 1242.2Z" stroke="url(#paint5_linear)"/>
</g>
<g filter="url(#filter17_f)">
<path d="M742.295 1240.52C748.534 1215.61 872.051 1099.34 876.832 1083.8C888.501 1045.86 896.198 1033.11 901.731 1032.31C905.719 1031.74 920.062 1042.24 937.491 1055.5C945.32 1044.7 936.813 1033.84 936.735 1029.76C936.424 1013.65 971.076 1007.59 968.999 1009.15C966.842 1010.77 974.677 1054.11 1006.81 1038.07C1038.94 1022.03 1024.86 1095.21 1020.33 1103.96C1014.38 1115.43 970.426 1080.55 937.491 1055.5C914.387 1087.37 879.363 1194.09 868.255 1219.33L822.573 1187.07C825.475 1174.32 737.284 1260.53 742.295 1240.52Z" fill="white"/>
</g>
<g filter="url(#filter18_f)">
<path d="M2284.3 922.523C2290.53 897.61 2414.05 781.345 2418.83 765.8C2430.5 727.859 2438.2 715.108 2443.73 714.31C2447.72 713.735 2462.06 724.241 2479.49 737.499C2487.32 726.697 2478.81 715.836 2478.73 711.759C2478.42 695.65 2513.08 689.595 2511 691.151C2508.84 692.766 2516.68 736.108 2548.81 720.067C2580.94 704.026 2566.86 777.209 2562.33 785.959C2556.38 797.433 2512.43 762.551 2479.49 737.499C2456.39 769.374 2421.36 876.092 2410.25 901.326L2364.57 869.075C2367.47 856.321 2279.28 942.532 2284.3 922.523Z" fill="white"/>
<path d="M2284.3 922.523C2290.53 897.61 2414.05 781.345 2418.83 765.8C2430.5 727.859 2438.2 715.108 2443.73 714.31C2447.72 713.735 2462.06 724.241 2479.49 737.499C2487.32 726.697 2478.81 715.836 2478.73 711.759C2478.42 695.65 2513.08 689.595 2511 691.151C2508.84 692.766 2516.68 736.108 2548.81 720.067C2580.94 704.026 2566.86 777.209 2562.33 785.959C2556.38 797.433 2512.43 762.551 2479.49 737.499C2456.39 769.374 2421.36 876.092 2410.25 901.326L2364.57 869.075C2367.47 856.321 2279.28 942.532 2284.3 922.523Z" stroke="black"/>
<path d="M2284.3 922.523C2290.53 897.61 2414.05 781.345 2418.83 765.8C2430.5 727.859 2438.2 715.108 2443.73 714.31C2447.72 713.735 2462.06 724.241 2479.49 737.499C2487.32 726.697 2478.81 715.836 2478.73 711.759C2478.42 695.65 2513.08 689.595 2511 691.151C2508.84 692.766 2516.68 736.108 2548.81 720.067C2580.94 704.026 2566.86 777.209 2562.33 785.959C2556.38 797.433 2512.43 762.551 2479.49 737.499C2456.39 769.374 2421.36 876.092 2410.25 901.326L2364.57 869.075C2367.47 856.321 2279.28 942.532 2284.3 922.523Z" stroke="url(#paint6_linear)"/>
</g>
<g filter="url(#filter19_f)">
<path d="M6593.96 1245.03C6565.66 1227.68 6630.81 1104.5 6615.01 1093.27C6576.44 1065.88 6571.36 1054.98 6581.6 1052.04C6588.98 1049.92 6636.37 1049.65 6694.78 1049.61C6693.22 1039.8 6657.42 1037.25 6650.49 1034.9C6623.12 1025.63 6685.47 1006.6 6683.71 1008.43C6683.05 1009.12 6751.97 1015.76 6842.53 1022.92C6880.39 965.406 6918.47 908.04 6948.24 892C6956.56 887.518 6969.65 962.955 6978.91 1032.73C6985.14 1033.12 6991.37 1033.52 6997.58 1033.9C7093.44 1025.55 7292.73 1016.9 7262 1034.9C7243.7 1045.63 7123.62 1041.65 6997.58 1033.9C6990.95 1034.48 6984.82 1035.05 6979.29 1035.62C6987.05 1094.7 6991.96 1148.84 6988.76 1145.7C6979.32 1136.44 6968.77 1141.16 6955.78 1138.55C6882.15 1123.74 6875.71 1141.64 6773.03 1121.87C6749.61 1150.08 6728.81 1166.13 6713.37 1156.76C6705.9 1166.61 6697.45 1177.54 6688.72 1188.82C6756.7 1246.12 6651.2 1329.58 6615.01 1293.06C6610.84 1288.85 6652.25 1235.9 6688.72 1188.82C6684.25 1185.05 6679.03 1181.4 6673 1177.9C6657.9 1169.15 6616.69 1258.96 6593.96 1245.03Z" fill="white"/>
<path d="M6593.96 1245.03C6565.66 1227.68 6630.81 1104.5 6615.01 1093.27C6576.44 1065.88 6571.36 1054.98 6581.6 1052.04C6588.98 1049.92 6636.37 1049.65 6694.78 1049.61C6693.22 1039.8 6657.42 1037.25 6650.49 1034.9C6623.12 1025.63 6685.47 1006.6 6683.71 1008.43C6683.05 1009.12 6751.97 1015.76 6842.53 1022.92C6880.39 965.406 6918.47 908.04 6948.24 892C6956.56 887.518 6969.65 962.955 6978.91 1032.73C6985.14 1033.12 6991.37 1033.52 6997.58 1033.9C7093.44 1025.55 7292.73 1016.9 7262 1034.9C7243.7 1045.63 7123.62 1041.65 6997.58 1033.9C6990.95 1034.48 6984.82 1035.05 6979.29 1035.62C6987.05 1094.7 6991.96 1148.84 6988.76 1145.7C6979.32 1136.44 6968.77 1141.16 6955.78 1138.55C6882.15 1123.74 6875.71 1141.64 6773.03 1121.87C6749.61 1150.08 6728.81 1166.13 6713.37 1156.76C6705.9 1166.61 6697.45 1177.54 6688.72 1188.82C6756.7 1246.12 6651.2 1329.58 6615.01 1293.06C6610.84 1288.85 6652.25 1235.9 6688.72 1188.82C6684.25 1185.05 6679.03 1181.4 6673 1177.9C6657.9 1169.15 6616.69 1258.96 6593.96 1245.03Z" stroke="black"/>
</g>
<g filter="url(#filter20_f)">
<path d="M1454.81 1000.67C1413.41 975.284 1508.71 795.105 1485.6 778.687C1429.18 738.616 1421.76 722.68 1436.73 718.38C1447.52 715.281 1516.84 714.885 1602.28 714.824C1599.99 700.469 1547.64 696.745 1537.5 693.31C1497.46 679.739 1588.66 651.903 1586.09 654.591C1585.13 655.592 1685.94 665.313 1818.4 675.774C1873.78 591.653 1929.48 507.741 1973.03 484.279C1985.2 477.723 2004.35 588.066 2017.89 690.122C2027 690.706 2036.11 691.279 2045.2 691.839C2185.41 679.629 2476.93 666.97 2431.97 693.31C2405.21 708.993 2229.56 703.184 2045.2 691.839C2035.51 692.683 2026.53 693.525 2018.44 694.352C2029.8 780.768 2036.98 859.964 2032.3 855.37C2018.49 841.833 2003.06 848.737 1984.06 844.915C1876.35 823.249 1866.93 849.432 1716.74 820.51C1682.48 861.789 1652.06 885.26 1629.48 871.547C1618.55 885.957 1606.19 901.955 1593.42 918.446C1692.85 1002.27 1538.53 1124.35 1485.6 1070.92C1479.5 1064.76 1540.08 987.311 1593.42 918.446C1586.88 912.935 1579.25 907.59 1570.42 902.471C1548.33 889.669 1488.05 1021.05 1454.81 1000.67Z" fill="white"/>
</g>
<g filter="url(#filter21_f)">
<path d="M1415.81 659.665C1374.41 634.284 1469.71 454.105 1446.6 437.687C1390.18 397.616 1382.76 381.68 1397.73 377.38C1408.52 374.281 1477.84 373.885 1563.28 373.824C1560.99 359.469 1508.64 355.745 1498.5 352.31C1458.46 338.739 1549.66 310.903 1547.09 313.591C1546.13 314.592 1646.94 324.313 1779.4 334.774C1834.78 250.653 1890.48 166.741 1934.03 143.279C1946.2 136.723 1965.35 247.066 1978.89 349.122C1988 349.706 1997.11 350.279 2006.2 350.839C2146.41 338.629 2437.93 325.97 2392.97 352.31C2366.21 367.993 2190.56 362.184 2006.2 350.839C1996.51 351.683 1987.53 352.525 1979.44 353.352C1990.8 439.768 1997.98 518.964 1993.3 514.37C1979.49 500.833 1964.06 507.737 1945.06 503.915C1837.35 482.249 1827.93 508.432 1677.74 479.51C1643.48 520.789 1613.06 544.26 1590.48 530.547C1579.55 544.957 1567.19 560.955 1554.42 577.446C1653.85 661.267 1499.53 783.346 1446.6 729.918C1440.5 723.76 1501.08 646.311 1554.42 577.446C1547.88 571.935 1540.25 566.59 1531.42 561.471C1509.33 548.669 1449.05 680.05 1415.81 659.665Z" fill="white"/>
</g>
<g filter="url(#filter22_f)">
<path d="M1820.81 700.665C1779.42 675.284 1874.71 495.105 1851.6 478.687C1795.18 438.616 1787.76 422.68 1802.73 418.38C1833.91 409.424 2176.79 241.447 2162 220.5C2158.11 214.993 2351.54 253.668 2526.65 296.56C2601.05 246.35 2661.77 204.975 2690.5 189.5C2699.54 184.629 2656.51 243.468 2600.86 315.324C2725.18 347.875 2821.47 379.54 2797.97 393.31C2777.37 405.386 2668.48 404.719 2535.31 398.594C2467.78 483.056 2402.95 559.928 2398.3 555.37C2384.49 541.833 2369.06 548.737 2350.06 544.915C2260.7 526.939 2238.99 541.901 2148.41 531.001C2078.2 566.096 2021.82 584.624 1995.75 571.197C1984.75 585.697 1972.3 601.822 1959.42 618.446C2058.85 702.266 1904.53 824.346 1851.6 770.918C1845.5 764.76 1906.08 687.311 1959.42 618.446C1952.88 612.935 1945.25 607.59 1936.42 602.471C1914.33 589.669 1854.05 721.05 1820.81 700.665Z" fill="white"/>
</g>
<g filter="url(#filter23_f)">
<path d="M2295.81 748.665C2254.41 723.284 2349.71 543.105 2326.6 526.687C2270.18 486.616 2262.76 470.68 2277.73 466.38C2288.52 463.281 2357.84 462.885 2443.28 462.824C2440.99 448.469 2388.64 444.745 2378.5 441.31C2338.46 427.739 2429.66 399.903 2427.09 402.591C2426.13 403.592 2526.94 413.313 2659.4 423.774C2714.78 339.653 2770.48 255.741 2814.03 232.279C2826.2 225.723 2845.35 336.066 2858.89 438.122C2868 438.706 2877.11 439.279 2886.2 439.839C3026.41 427.629 3317.93 414.97 3272.97 441.31C3246.21 456.993 3070.56 451.184 2886.2 439.839C2876.51 440.683 2867.53 441.525 2859.44 442.352C2870.8 528.768 2877.98 607.964 2873.3 603.37C2859.49 589.833 2844.06 596.737 2825.06 592.915C2717.35 571.249 2707.93 597.432 2557.74 568.51C2523.48 609.789 2493.06 633.26 2470.48 619.547C2459.55 633.957 2447.19 649.955 2434.42 666.446C2533.85 750.267 2379.53 872.346 2326.6 818.918C2320.5 812.76 2381.08 735.311 2434.42 666.446C2427.88 660.935 2420.25 655.59 2411.42 650.471C2389.33 637.669 2329.05 769.05 2295.81 748.665Z" fill="white"/>
</g>
<g filter="url(#filter24_f)">
<path d="M2174.96 1268.22C2146.66 1250.87 2211.81 1127.69 2196.01 1116.46C2157.44 1089.07 2152.36 1078.17 2162.6 1075.23C2169.98 1073.12 2217.37 1072.84 2275.78 1072.8C2274.22 1062.99 2238.42 1060.44 2231.5 1058.09C2204.12 1048.82 2266.47 1029.79 2264.71 1031.62C2264.06 1032.31 2332.97 1038.95 2423.53 1046.11C2461.39 988.597 2499.47 931.231 2529.25 915.19C2537.57 910.709 2550.66 986.145 2559.91 1055.92C2566.14 1056.32 2572.37 1056.71 2578.58 1057.09C2674.44 1048.74 2873.73 1040.09 2843 1058.09C2824.7 1068.82 2704.62 1064.85 2578.58 1057.09C2571.95 1057.67 2565.82 1058.24 2560.29 1058.81C2568.05 1117.89 2572.97 1172.03 2569.76 1168.89C2560.32 1159.63 2549.77 1164.35 2536.78 1161.74C2463.15 1146.93 2456.71 1164.83 2354.03 1145.06C2330.61 1173.28 2309.81 1189.32 2294.38 1179.95C2286.9 1189.8 2278.46 1200.74 2269.72 1212.01C2337.7 1269.31 2232.2 1352.77 2196.01 1316.25C2191.84 1312.04 2233.26 1259.09 2269.72 1212.01C2265.25 1208.24 2260.04 1204.59 2254 1201.09C2238.9 1192.34 2197.69 1282.15 2174.96 1268.22Z" fill="white"/>
<path d="M2174.96 1268.22C2146.66 1250.87 2211.81 1127.69 2196.01 1116.46C2157.44 1089.07 2152.36 1078.17 2162.6 1075.23C2169.98 1073.12 2217.37 1072.84 2275.78 1072.8C2274.22 1062.99 2238.42 1060.44 2231.5 1058.09C2204.12 1048.82 2266.47 1029.79 2264.71 1031.62C2264.06 1032.31 2332.97 1038.95 2423.53 1046.11C2461.39 988.597 2499.47 931.231 2529.25 915.19C2537.57 910.709 2550.66 986.145 2559.91 1055.92C2566.14 1056.32 2572.37 1056.71 2578.58 1057.09C2674.44 1048.74 2873.73 1040.09 2843 1058.09C2824.7 1068.82 2704.62 1064.85 2578.58 1057.09C2571.95 1057.67 2565.82 1058.24 2560.29 1058.81C2568.05 1117.89 2572.97 1172.03 2569.76 1168.89C2560.32 1159.63 2549.77 1164.35 2536.78 1161.74C2463.15 1146.93 2456.71 1164.83 2354.03 1145.06C2330.61 1173.28 2309.81 1189.32 2294.38 1179.95C2286.9 1189.8 2278.46 1200.74 2269.72 1212.01C2337.7 1269.31 2232.2 1352.77 2196.01 1316.25C2191.84 1312.04 2233.26 1259.09 2269.72 1212.01C2265.25 1208.24 2260.04 1204.59 2254 1201.09C2238.9 1192.34 2197.69 1282.15 2174.96 1268.22Z" stroke="black"/>
</g>
<defs>
<filter id="filter0_f" x="2517" y="610" width="2783" height="542" filterUnits="userSpaceOnUse" color-interpolation-filters="sRGB">
<feFlood flood-opacity="0" result="BackgroundImageFix"/>
<feBlend mode="normal" in="SourceGraphic" in2="BackgroundImageFix" result="shape"/>
<feGaussianBlur stdDeviation="25" result="effect1_foregroundBlur"/>
</filter>
<filter id="filter1_f" x="4786.15" y="734.663" width="1090.19" height="299.951" filterUnits="userSpaceOnUse" color-interpolation-filters="sRGB">
<feFlood flood-opacity="0" result="BackgroundImageFix"/>
<feBlend mode="normal" in="SourceGraphic" in2="BackgroundImageFix" result="shape"/>
<feGaussianBlur stdDeviation="25" result="effect1_foregroundBlur"/>
</filter>
<filter id="filter2_f" x="0.0576477" y="678.663" width="1090.19" height="299.951" filterUnits="userSpaceOnUse" color-interpolation-filters="sRGB">
<feFlood flood-opacity="0" result="BackgroundImageFix"/>
<feBlend mode="normal" in="SourceGraphic" in2="BackgroundImageFix" result="shape"/>
<feGaussianBlur stdDeviation="25" result="effect1_foregroundBlur"/>
</filter>
<filter id="filter3_f" x="1080.06" y="682.663" width="1090.19" height="299.951" filterUnits="userSpaceOnUse" color-interpolation-filters="sRGB">
<feFlood flood-opacity="0" result="BackgroundImageFix"/>
<feBlend mode="normal" in="SourceGraphic" in2="BackgroundImageFix" result="shape"/>
<feGaussianBlur stdDeviation="25" result="effect1_foregroundBlur"/>
</filter>
<filter id="filter4_f" x="1844.06" y="440.663" width="1090.19" height="299.951" filterUnits="userSpaceOnUse" color-interpolation-filters="sRGB">
<feFlood flood-opacity="0" result="BackgroundImageFix"/>
<feBlend mode="normal" in="SourceGraphic" in2="BackgroundImageFix" result="shape"/>
<feGaussianBlur stdDeviation="25" result="effect1_foregroundBlur"/>
</filter>
<filter id="filter5_f" x="3796.06" y="339.663" width="1090.19" height="299.951" filterUnits="userSpaceOnUse" color-interpolation-filters="sRGB">
<feFlood flood-opacity="0" result="BackgroundImageFix"/>
<feBlend mode="normal" in="SourceGraphic" in2="BackgroundImageFix" result="shape"/>
<feGaussianBlur stdDeviation="25" result="effect1_foregroundBlur"/>
</filter>
<filter id="filter6_f" x="59.8177" y="947.936" width="347.262" height="246.42" filterUnits="userSpaceOnUse" color-interpolation-filters="sRGB">
<feFlood flood-opacity="0" result="BackgroundImageFix"/>
<feBlend mode="normal" in="SourceGraphic" in2="BackgroundImageFix" result="shape"/>
<feGaussianBlur stdDeviation="25" result="effect1_foregroundBlur"/>
</filter>
<filter id="filter7_f" x="1500.06" y="0.662842" width="1090.19" height="299.951" filterUnits="userSpaceOnUse" color-interpolation-filters="sRGB">
<feFlood flood-opacity="0" result="BackgroundImageFix"/>
<feBlend mode="normal" in="SourceGraphic" in2="BackgroundImageFix" result="shape"/>
<feGaussianBlur stdDeviation="25" result="effect1_foregroundBlur"/>
</filter>
<filter id="filter8_f" x="3820.76" y="978.677" width="768.048" height="206.1" filterUnits="userSpaceOnUse" color-interpolation-filters="sRGB">
<feFlood flood-opacity="0" result="BackgroundImageFix"/>
<feBlend mode="normal" in="SourceGraphic" in2="BackgroundImageFix" result="shape"/>
<feGaussianBlur stdDeviation="25" result="effect1_foregroundBlur"/>
</filter>
<filter id="filter9_f" x="4351.87" y="1062" width="968.06" height="292.18" filterUnits="userSpaceOnUse" color-interpolation-filters="sRGB">
<feFlood flood-opacity="0" result="BackgroundImageFix"/>
<feBlend mode="normal" in="SourceGraphic" in2="BackgroundImageFix" result="shape"/>
<feGaussianBlur stdDeviation="20" result="effect1_foregroundBlur"/>
</filter>
<filter id="filter10_f" x="152" y="245" width="968.06" height="292.18" filterUnits="userSpaceOnUse" color-interpolation-filters="sRGB">
<feFlood flood-opacity="0" result="BackgroundImageFix"/>
<feBlend mode="normal" in="SourceGraphic" in2="BackgroundImageFix" result="shape"/>
<feGaussianBlur stdDeviation="20" result="effect1_foregroundBlur"/>
</filter>
<filter id="filter11_f" x="1751" y="351" width="1369" height="1003" filterUnits="userSpaceOnUse" color-interpolation-filters="sRGB">
<feFlood flood-opacity="0" result="BackgroundImageFix"/>
<feBlend mode="normal" in="SourceGraphic" in2="BackgroundImageFix" result="shape"/>
<feGaussianBlur stdDeviation="20" result="effect1_foregroundBlur"/>
</filter>
<filter id="filter12_f" x="4886.7" y="630" width="889.394" height="226.883" filterUnits="userSpaceOnUse" color-interpolation-filters="sRGB">
<feFlood flood-opacity="0" result="BackgroundImageFix"/>
<feBlend mode="normal" in="SourceGraphic" in2="BackgroundImageFix" result="shape"/>
<feGaussianBlur stdDeviation="20" result="effect1_foregroundBlur"/>
</filter>
<filter id="filter13_f" x="2231" y="449" width="889.394" height="226.883" filterUnits="userSpaceOnUse" color-interpolation-filters="sRGB">
<feFlood flood-opacity="0" result="BackgroundImageFix"/>
<feBlend mode="normal" in="SourceGraphic" in2="BackgroundImageFix" result="shape"/>
<feGaussianBlur stdDeviation="20" result="effect1_foregroundBlur"/>
</filter>
<filter id="filter14_f" x="6052.61" y="674.642" width="580.771" height="241.906" filterUnits="userSpaceOnUse" color-interpolation-filters="sRGB">
<feFlood flood-opacity="0" result="BackgroundImageFix"/>
<feBlend mode="normal" in="SourceGraphic" in2="BackgroundImageFix" result="shape"/>
<feGaussianBlur stdDeviation="25" result="effect1_foregroundBlur"/>
</filter>
<filter id="filter15_f" x="1804.65" y="898.642" width="580.771" height="241.906" filterUnits="userSpaceOnUse" color-interpolation-filters="sRGB">
<feFlood flood-opacity="0" result="BackgroundImageFix"/>
<feBlend mode="normal" in="SourceGraphic" in2="BackgroundImageFix" result="shape"/>
<feGaussianBlur stdDeviation="25" result="effect1_foregroundBlur"/>
</filter>
<filter id="filter16_f" x="5944.33" y="960.589" width="385.231" height="334.636" filterUnits="userSpaceOnUse" color-interpolation-filters="sRGB">
<feFlood flood-opacity="0" result="BackgroundImageFix"/>
<feBlend mode="normal" in="SourceGraphic" in2="BackgroundImageFix" result="shape"/>
<feGaussianBlur stdDeviation="25" result="effect1_foregroundBlur"/>
</filter>
<filter id="filter17_f" x="692.089" y="958.915" width="385.231" height="334.636" filterUnits="userSpaceOnUse" color-interpolation-filters="sRGB">
<feFlood flood-opacity="0" result="BackgroundImageFix"/>
<feBlend mode="normal" in="SourceGraphic" in2="BackgroundImageFix" result="shape"/>
<feGaussianBlur stdDeviation="25" result="effect1_foregroundBlur"/>
</filter>
<filter id="filter18_f" x="2234.09" y="640.915" width="385.231" height="334.636" filterUnits="userSpaceOnUse" color-interpolation-filters="sRGB">
<feFlood flood-opacity="0" result="BackgroundImageFix"/>
<feBlend mode="normal" in="SourceGraphic" in2="BackgroundImageFix" result="shape"/>
<feGaussianBlur stdDeviation="25" result="effect1_foregroundBlur"/>
</filter>
<filter id="filter19_f" x="6527" y="841.81" width="788.187" height="510.19" filterUnits="userSpaceOnUse" color-interpolation-filters="sRGB">
<feFlood flood-opacity="0" result="BackgroundImageFix"/>
<feBlend mode="normal" in="SourceGraphic" in2="BackgroundImageFix" result="shape"/>
<feGaussianBlur stdDeviation="25" result="effect1_foregroundBlur"/>
</filter>
<filter id="filter20_f" x="1380" y="434" width="1106.64" height="700" filterUnits="userSpaceOnUse" color-interpolation-filters="sRGB">
<feFlood flood-opacity="0" result="BackgroundImageFix"/>
<feBlend mode="normal" in="SourceGraphic" in2="BackgroundImageFix" result="shape"/>
<feGaussianBlur stdDeviation="25" result="effect1_foregroundBlur"/>
</filter>
<filter id="filter21_f" x="1341" y="93" width="1106.64" height="700" filterUnits="userSpaceOnUse" color-interpolation-filters="sRGB">
<feFlood flood-opacity="0" result="BackgroundImageFix"/>
<feBlend mode="normal" in="SourceGraphic" in2="BackgroundImageFix" result="shape"/>
<feGaussianBlur stdDeviation="25" result="effect1_foregroundBlur"/>
</filter>
<filter id="filter22_f" x="1746" y="139.218" width="1105.52" height="694.782" filterUnits="userSpaceOnUse" color-interpolation-filters="sRGB">
<feFlood flood-opacity="0" result="BackgroundImageFix"/>
<feBlend mode="normal" in="SourceGraphic" in2="BackgroundImageFix" result="shape"/>
<feGaussianBlur stdDeviation="25" result="effect1_foregroundBlur"/>
</filter>
<filter id="filter23_f" x="2221" y="182" width="1106.64" height="700" filterUnits="userSpaceOnUse" color-interpolation-filters="sRGB">
<feFlood flood-opacity="0" result="BackgroundImageFix"/>
<feBlend mode="normal" in="SourceGraphic" in2="BackgroundImageFix" result="shape"/>
<feGaussianBlur stdDeviation="25" result="effect1_foregroundBlur"/>
</filter>
<filter id="filter24_f" x="2108" y="865" width="788.187" height="510.19" filterUnits="userSpaceOnUse" color-interpolation-filters="sRGB">
<feFlood flood-opacity="0" result="BackgroundImageFix"/>
<feBlend mode="normal" in="SourceGraphic" in2="BackgroundImageFix" result="shape"/>
<feGaussianBlur stdDeviation="25" result="effect1_foregroundBlur"/>
</filter>
<linearGradient id="paint0_linear" x1="4836.19" y1="884.79" x2="5826.25" y2="883.825" gradientUnits="userSpaceOnUse">
<stop stop-color="white"/>
<stop offset="1" stop-color="white" stop-opacity="0"/>
</linearGradient>
<linearGradient id="paint1_linear" x1="1130.1" y1="832.79" x2="2120.16" y2="831.825" gradientUnits="userSpaceOnUse">
<stop stop-color="white"/>
<stop offset="1" stop-color="white" stop-opacity="0"/>
</linearGradient>
<linearGradient id="paint2_linear" x1="1894.1" y1="590.79" x2="2884.16" y2="589.825" gradientUnits="userSpaceOnUse">
<stop stop-color="white"/>
<stop offset="1" stop-color="white" stop-opacity="0"/>
</linearGradient>
<linearGradient id="paint3_linear" x1="3846.1" y1="489.79" x2="4836.16" y2="488.825" gradientUnits="userSpaceOnUse">
<stop stop-color="white"/>
<stop offset="1" stop-color="white" stop-opacity="0"/>
</linearGradient>
<linearGradient id="paint4_linear" x1="4533.35" y1="1058.17" x2="3888.43" y2="1208.86" gradientUnits="userSpaceOnUse">
<stop stop-color="white"/>
<stop offset="1" stop-color="white" stop-opacity="0"/>
</linearGradient>
<linearGradient id="paint5_linear" x1="6250.21" y1="1021.97" x2="6048.38" y2="1285.89" gradientUnits="userSpaceOnUse">
<stop stop-color="white"/>
<stop offset="1" stop-color="white" stop-opacity="0"/>
</linearGradient>
<linearGradient id="paint6_linear" x1="2539.97" y1="702.298" x2="2338.14" y2="966.217" gradientUnits="userSpaceOnUse">
<stop stop-color="white"/>
<stop offset="1" stop-color="white" stop-opacity="0"/>
</linearGradient>
</defs>
</svg>
