<svg width="4531" height="1192" viewBox="0 0 4531 1192" fill="none" xmlns="http://www.w3.org/2000/svg">
<rect x="50.5" y="0.5" width="4480" height="1159" stroke="black"/>
<g filter="url(#filter0_f)">
<path d="M1845.7 762.984C1862.23 702.295 2873.97 704.749 2716.33 675.589C2589.08 652.053 1713.84 744.103 1550.91 727.485C1217.62 693.492 3210.74 303.914 1503.82 619.638C1074.83 698.988 49.4648 772.73 50.0002 778.97C53.4267 818.905 958.109 760.039 1015.29 794.956C1118.84 858.184 1112 952.602 1315.97 937.36C1444.7 927.741 1182.02 799.052 1315.97 794.956C1525.24 788.557 1826.36 834.016 1845.7 762.984Z" fill="white"/>
</g>
<g filter="url(#filter1_f)">
<path d="M3303.37 811.873C3233.13 827.166 2734.3 792.486 2688.86 801.031C2577.95 821.886 2533.84 824.654 2521.93 819.152C2513.34 815.186 2512.22 789.67 2512.02 758.221C2472.28 759.095 2461.99 778.375 2452.49 782.113C2414.93 796.882 2337.84 763.375 2345.28 764.315C2353.01 765.292 2441.37 717.691 2345.22 695.953C2249.06 674.215 2447.72 624.518 2476.64 621.779C2514.56 618.187 2511.64 698.795 2512.02 758.221C2629.29 755.641 2849.99 760.585 2929.82 750.476L3031.5 769.535C2996.07 777.692 3359.79 799.591 3303.37 811.873Z" fill="white"/>
<path d="M2476.64 621.779C2534.62 616.287 2497.12 807.693 2521.93 819.152C2533.84 824.654 2577.95 821.886 2688.86 801.031C2734.3 792.486 3233.13 827.166 3303.37 811.873C3359.79 799.591 2996.07 777.692 3031.5 769.535L2929.82 750.476C2849.99 760.585 2629.29 755.641 2512.02 758.221C2472.28 759.095 2461.99 778.375 2452.49 782.113C2414.93 796.882 2337.84 763.375 2345.28 764.315C2353.01 765.292 2441.37 717.691 2345.22 695.953C2249.06 674.215 2447.72 624.518 2476.64 621.779Z" stroke="black"/>
<path d="M2476.64 621.779C2534.62 616.287 2497.12 807.693 2521.93 819.152C2533.84 824.654 2577.95 821.886 2688.86 801.031C2734.3 792.486 3233.13 827.166 3303.37 811.873C3359.79 799.591 2996.07 777.692 3031.5 769.535L2929.82 750.476C2849.99 760.585 2629.29 755.641 2512.02 758.221C2472.28 759.095 2461.99 778.375 2452.49 782.113C2414.93 796.882 2337.84 763.375 2345.28 764.315C2353.01 765.292 2441.37 717.691 2345.22 695.953C2249.06 674.215 2447.72 624.518 2476.64 621.779Z" stroke="url(#paint0_linear)"/>
</g>
<g filter="url(#filter2_f)">
<path d="M2313.29 416.873C2243.04 432.166 1744.21 397.486 1698.77 406.031C1587.86 426.886 1543.75 429.654 1531.84 424.152C1523.25 420.186 1522.13 394.67 1521.93 363.221C1482.19 364.095 1471.9 383.375 1462.4 387.113C1424.84 401.882 1347.75 368.375 1355.19 369.315C1362.92 370.292 1451.28 322.691 1355.13 300.953C1258.97 279.215 1457.63 229.518 1486.55 226.779C1524.47 223.187 1521.55 303.795 1521.93 363.221C1639.2 360.641 1859.91 365.585 1939.73 355.476L2041.41 374.535C2005.98 382.692 2369.7 404.591 2313.29 416.873Z" fill="white"/>
<path d="M1486.55 226.779C1544.54 221.287 1507.03 412.693 1531.84 424.152C1543.75 429.654 1587.86 426.886 1698.77 406.031C1744.21 397.486 2243.04 432.166 2313.29 416.873C2369.7 404.591 2005.98 382.692 2041.41 374.535L1939.73 355.476C1859.91 365.585 1639.2 360.641 1521.93 363.221C1482.19 364.095 1471.9 383.375 1462.4 387.113C1424.84 401.882 1347.75 368.375 1355.19 369.315C1362.92 370.292 1451.28 322.691 1355.13 300.953C1258.97 279.215 1457.63 229.518 1486.55 226.779Z" stroke="black"/>
<path d="M1486.55 226.779C1544.54 221.287 1507.03 412.693 1531.84 424.152C1543.75 429.654 1587.86 426.886 1698.77 406.031C1744.21 397.486 2243.04 432.166 2313.29 416.873C2369.7 404.591 2005.98 382.692 2041.41 374.535L1939.73 355.476C1859.91 365.585 1639.2 360.641 1521.93 363.221C1482.19 364.095 1471.9 383.375 1462.4 387.113C1424.84 401.882 1347.75 368.375 1355.19 369.315C1362.92 370.292 1451.28 322.691 1355.13 300.953C1258.97 279.215 1457.63 229.518 1486.55 226.779Z" stroke="url(#paint1_linear)"/>
</g>
<g filter="url(#filter3_f)">
<path d="M1357.32 967.96C1401.53 950.56 1734.11 907.5 1762.88 897.001C1833.1 871.378 1861.75 864.292 1870.3 865.89C1876.46 867.042 1880.53 881.237 1884.77 898.881C1910.79 893.407 1915.04 881.285 1920.81 877.993C1943.58 864.987 1998.65 874.146 1993.63 874.551C1988.42 874.972 1936.53 912.794 2002.61 912.951C2068.68 913.107 1944.52 965.938 1925.86 971.102C1901.39 977.874 1892.78 932.221 1884.77 898.881C1807.99 915.034 1662.19 939.929 1611.01 955.618L1541.65 957.659C1563.89 948.633 1321.82 981.935 1357.32 967.96Z" fill="white"/>
<path d="M1925.86 971.102C1888.45 981.458 1888.11 869.218 1870.3 865.89C1861.75 864.292 1833.1 871.378 1762.88 897.001C1734.11 907.5 1401.53 950.56 1357.32 967.96C1321.82 981.935 1563.89 948.633 1541.65 957.659L1611.01 955.618C1662.19 939.929 1807.99 915.034 1884.77 898.881C1910.79 893.407 1915.04 881.285 1920.81 877.993C1943.58 864.987 1998.65 874.146 1993.63 874.551C1988.42 874.972 1936.53 912.794 2002.61 912.951C2068.68 913.107 1944.52 965.938 1925.86 971.102Z" stroke="black"/>
<path d="M1925.86 971.102C1888.45 981.458 1888.11 869.218 1870.3 865.89C1861.75 864.292 1833.1 871.378 1762.88 897.001C1734.11 907.5 1401.53 950.56 1357.32 967.96C1321.82 981.935 1563.89 948.633 1541.65 957.659L1611.01 955.618C1662.19 939.929 1807.99 915.034 1884.77 898.881C1910.79 893.407 1915.04 881.285 1920.81 877.993C1943.58 864.987 1998.65 874.146 1993.63 874.551C1988.42 874.972 1936.53 912.794 2002.61 912.951C2068.68 913.107 1944.52 965.938 1925.86 971.102Z" stroke="url(#paint2_linear)"/>
</g>
<g filter="url(#filter4_f)">
<path d="M2756.68 1020.45C2815.87 1049.64 2435.98 1047.18 2429.78 1107.92C2422.52 1179.02 2309.45 1133.52 2230.87 1139.92C2212.25 1141.44 2171.88 1116.44 2125.98 1084.85C2092.55 1089.86 2058.15 1093.63 2025.95 1096.53C2040.32 1107.3 2054.45 1117.22 2067.25 1125.58C2092.87 1126.91 2112.32 1130.72 2117.98 1139.92C2131 1161.12 2104.88 1150.14 2067.25 1125.58C1995.62 1121.83 1875.82 1137.36 1874.88 1107.92C1874.8 1105.69 1943.11 1103.99 2025.95 1096.53C1956.46 1044.49 1881.3 972.857 1923.5 964.451C1953.93 958.389 2047.95 1031.15 2125.98 1084.85C2230.24 1069.22 2325.1 1041.51 2314.67 990.486C2245.79 987.24 2191.36 983.635 2173.23 978.706C2048.08 944.683 2263.84 916.706 2301.41 964.451C2308.72 973.744 2313.01 982.407 2314.67 990.486C2478.18 998.193 2723.06 1003.88 2756.68 1020.45Z" fill="white"/>
</g>
<g filter="url(#filter5_f)">
<path d="M3218.75 610.471C3224.96 549.728 3145.34 539.657 3086.15 510.471C3038.38 486.914 3169.24 591.573 3108.07 574.941C2982.92 540.918 2579.87 622.892 2661.83 510.471C2665.63 505.256 2409.5 620.226 2409.7 626.471C2410.99 666.441 2664.67 591.523 2686.14 626.471C2725.02 689.755 2839.21 625.727 2915.8 610.471C2964.13 600.844 2969.56 646.571 3019.85 642.471C3098.43 636.067 3211.49 681.565 3218.75 610.471Z" fill="white"/>
</g>
<g filter="url(#filter6_f)">
<path d="M3680.59 695.739C3710.18 697.637 3908.31 650.569 3927.33 651.227C3973.76 652.834 3991.77 651.137 3996.11 648.038C3999.24 645.805 3997.57 634.949 3995.04 621.645C4011.12 619.433 4016.87 626.912 4021.01 627.874C4037.38 631.675 4065.66 612.506 4062.74 613.387C4059.7 614.302 4020.14 599.927 4057.08 584.493C4094.02 569.058 4009.83 560.965 3997.95 561.686C3982.37 562.632 3990.25 596.508 3995.04 621.645C3947.56 628.175 3859.03 644.605 3826.02 645.52C3823.49 645.59 3821.02 645.635 3818.61 645.656C3855.28 635.689 3882.73 628.423 3886.04 628.289C3830.76 605.669 3868.32 599.635 3838.25 585.528C3833.41 583.256 3840.64 579.62 3825.12 579.894C3813.56 580.098 3798.87 588.207 3785.94 593.919C3728.19 619.422 3737.46 646.358 3818.61 645.656C3803.06 649.884 3785.84 654.599 3768.11 659.461C3671.56 658.991 3540.04 704.845 3601.27 703.52C3608.33 703.367 3692.9 680.083 3768.11 659.461C3774.46 659.492 3780.65 659.723 3786.63 660.181C3801.59 661.326 3656.84 694.214 3680.59 695.739Z" fill="white"/>
<path d="M3997.95 561.686C3974.12 563.133 4005.15 641.584 3996.11 648.038C3991.77 651.137 3973.76 652.834 3927.33 651.227C3908.31 650.569 3710.18 697.637 3680.59 695.739C3656.84 694.214 3801.59 661.326 3786.63 660.181C3689.68 652.758 3536.02 704.932 3601.27 703.52C3613.91 703.247 3875.37 628.722 3886.04 628.289C3830.76 605.669 3868.32 599.635 3838.25 585.528C3833.41 583.256 3840.64 579.62 3825.12 579.894C3813.56 580.098 3798.87 588.207 3785.94 593.919C3726.47 620.178 3738.07 647.957 3826.02 645.52C3859.03 644.605 3947.56 628.175 3995.04 621.645C4011.12 619.433 4016.87 626.912 4021.01 627.874C4037.38 631.675 4065.66 612.506 4062.74 613.387C4059.7 614.302 4020.14 599.927 4057.08 584.493C4094.02 569.058 4009.83 560.965 3997.95 561.686Z" stroke="black"/>
</g>
<g filter="url(#filter7_f)">
<path d="M3459.89 939.79C3482.32 927.274 3651.63 937.653 3666.23 930.491C3701.87 913.01 3716.43 909.886 3720.8 913.371C3723.95 915.883 3726.12 933.529 3728.39 955.309C3741.63 953.617 3743.71 939.98 3746.63 937.13C3758.16 925.871 3786.3 946.974 3783.74 946.527C3781.09 946.062 3754.87 981.453 3788.57 993.882C3822.26 1006.31 3759.3 1046.17 3749.81 1048.86C3737.38 1052.39 3732.69 996.466 3728.39 955.309C3689.34 960.304 3615.16 962.917 3589.17 972.104L3553.81 961.682C3565.1 955.062 3441.88 949.842 3459.89 939.79Z" fill="white"/>
<path d="M3749.81 1048.86C3730.8 1054.25 3729.9 920.63 3720.8 913.371C3716.43 909.886 3701.87 913.01 3666.23 930.491C3651.63 937.653 3482.32 927.274 3459.89 939.79C3441.88 949.842 3565.1 955.062 3553.81 961.682L3589.17 972.104C3615.16 962.917 3689.34 960.304 3728.39 955.309C3741.63 953.617 3743.71 939.98 3746.63 937.13C3758.16 925.871 3786.3 946.974 3783.74 946.527C3781.09 946.062 3754.87 981.453 3788.57 993.882C3822.26 1006.31 3759.3 1046.17 3749.81 1048.86Z" stroke="black"/>
<path d="M3749.81 1048.86C3730.8 1054.25 3729.9 920.63 3720.8 913.371C3716.43 909.886 3701.87 913.01 3666.23 930.491C3651.63 937.653 3482.32 927.274 3459.89 939.79C3441.88 949.842 3565.1 955.062 3553.81 961.682L3589.17 972.104C3615.16 962.917 3689.34 960.304 3728.39 955.309C3741.63 953.617 3743.71 939.98 3746.63 937.13C3758.16 925.871 3786.3 946.974 3783.74 946.527C3781.09 946.062 3754.87 981.453 3788.57 993.882C3822.26 1006.31 3759.3 1046.17 3749.81 1048.86Z" stroke="url(#paint3_linear)"/>
</g>
<g filter="url(#filter8_f)">
<path d="M4219.51 1082.03C4201.4 1064.68 4243.1 941.497 4232.99 930.272C4208.3 902.878 4205.05 891.984 4211.6 889.044C4216.32 886.925 4246.66 886.654 4284.04 886.612C4283.04 876.798 4260.13 874.253 4255.7 871.905C4238.18 862.626 4278.08 843.597 4276.96 845.434C4275.79 847.343 4332.29 869.176 4358.22 845.434C4384.16 821.693 4443.05 870.766 4446.27 877.908C4450.51 887.273 4354.69 886.533 4284.04 886.612C4287 915.573 4280.91 970.076 4292.85 989.792C4293.77 991.306 4294.73 992.778 4295.72 994.211C4306.87 971.268 4314.68 954.116 4313.6 952.134C4399.45 982.342 4399.48 959.327 4451.1 975.55C4459.41 978.163 4466.16 973.442 4472.21 982.697C4476.71 989.588 4461.02 999.257 4451.1 1007.6C4406.81 1044.88 4329.3 1042.5 4295.72 994.211C4291 1003.94 4285.67 1014.72 4280.17 1025.82C4323.67 1083.12 4256.15 1166.58 4232.99 1130.06C4230.32 1125.85 4256.83 1072.9 4280.17 1025.82C4277.31 1022.05 4273.97 1018.4 4270.1 1014.9C4260.44 1006.15 4234.06 1095.96 4219.51 1082.03Z" fill="white"/>
<path d="M4446.27 877.908C4452.75 892.229 4225.25 882.921 4211.6 889.044C4205.05 891.984 4208.3 902.878 4232.99 930.272C4243.1 941.497 4201.4 1064.68 4219.51 1082.03C4234.06 1095.96 4260.44 1006.15 4270.1 1014.9C4332.74 1071.63 4257.67 1168.98 4232.99 1130.06C4228.2 1122.51 4317.08 958.525 4313.6 952.134C4399.45 982.342 4399.48 959.327 4451.1 975.55C4459.41 978.163 4466.16 973.442 4472.21 982.697C4476.71 989.588 4461.02 999.257 4451.1 1007.6C4405.5 1045.98 4324.68 1042.33 4292.85 989.792C4280.91 970.076 4287 915.573 4284.04 886.612C4283.04 876.798 4260.13 874.253 4255.7 871.905C4238.18 862.626 4278.08 843.597 4276.96 845.434C4275.79 847.343 4332.29 869.176 4358.22 845.434C4384.16 821.693 4443.05 870.766 4446.27 877.908Z" stroke="black"/>
</g>
<defs>
<filter id="filter0_f" x="0" y="447" width="2783" height="542" filterUnits="userSpaceOnUse" color-interpolation-filters="sRGB">
<feFlood flood-opacity="0" result="BackgroundImageFix"/>
<feBlend mode="normal" in="SourceGraphic" in2="BackgroundImageFix" result="shape"/>
<feGaussianBlur stdDeviation="25" result="effect1_foregroundBlur"/>
</filter>
<filter id="filter1_f" x="2268.65" y="571.163" width="1091.19" height="300.951" filterUnits="userSpaceOnUse" color-interpolation-filters="sRGB">
<feFlood flood-opacity="0" result="BackgroundImageFix"/>
<feBlend mode="normal" in="SourceGraphic" in2="BackgroundImageFix" result="shape"/>
<feGaussianBlur stdDeviation="25" result="effect1_foregroundBlur"/>
</filter>
<filter id="filter2_f" x="1278.56" y="176.163" width="1091.19" height="300.951" filterUnits="userSpaceOnUse" color-interpolation-filters="sRGB">
<feFlood flood-opacity="0" result="BackgroundImageFix"/>
<feBlend mode="normal" in="SourceGraphic" in2="BackgroundImageFix" result="shape"/>
<feGaussianBlur stdDeviation="25" result="effect1_foregroundBlur"/>
</filter>
<filter id="filter3_f" x="1303.26" y="815.181" width="769.056" height="207.092" filterUnits="userSpaceOnUse" color-interpolation-filters="sRGB">
<feFlood flood-opacity="0" result="BackgroundImageFix"/>
<feBlend mode="normal" in="SourceGraphic" in2="BackgroundImageFix" result="shape"/>
<feGaussianBlur stdDeviation="25" result="effect1_foregroundBlur"/>
</filter>
<filter id="filter4_f" x="1834.88" y="899" width="968.06" height="292.18" filterUnits="userSpaceOnUse" color-interpolation-filters="sRGB">
<feFlood flood-opacity="0" result="BackgroundImageFix"/>
<feBlend mode="normal" in="SourceGraphic" in2="BackgroundImageFix" result="shape"/>
<feGaussianBlur stdDeviation="20" result="effect1_foregroundBlur"/>
</filter>
<filter id="filter5_f" x="2369.7" y="467" width="889.394" height="226.883" filterUnits="userSpaceOnUse" color-interpolation-filters="sRGB">
<feFlood flood-opacity="0" result="BackgroundImageFix"/>
<feBlend mode="normal" in="SourceGraphic" in2="BackgroundImageFix" result="shape"/>
<feGaussianBlur stdDeviation="20" result="effect1_foregroundBlur"/>
</filter>
<filter id="filter6_f" x="3535.11" y="511.145" width="581.777" height="242.9" filterUnits="userSpaceOnUse" color-interpolation-filters="sRGB">
<feFlood flood-opacity="0" result="BackgroundImageFix"/>
<feBlend mode="normal" in="SourceGraphic" in2="BackgroundImageFix" result="shape"/>
<feGaussianBlur stdDeviation="25" result="effect1_foregroundBlur"/>
</filter>
<filter id="filter7_f" x="3407.59" y="861.61" width="441.315" height="237.909" filterUnits="userSpaceOnUse" color-interpolation-filters="sRGB">
<feFlood flood-opacity="0" result="BackgroundImageFix"/>
<feBlend mode="normal" in="SourceGraphic" in2="BackgroundImageFix" result="shape"/>
<feGaussianBlur stdDeviation="25" result="effect1_foregroundBlur"/>
</filter>
<filter id="filter8_f" x="4158.16" y="788.5" width="365.342" height="401" filterUnits="userSpaceOnUse" color-interpolation-filters="sRGB">
<feFlood flood-opacity="0" result="BackgroundImageFix"/>
<feBlend mode="normal" in="SourceGraphic" in2="BackgroundImageFix" result="shape"/>
<feGaussianBlur stdDeviation="25" result="effect1_foregroundBlur"/>
</filter>
<linearGradient id="paint0_linear" x1="2319.19" y1="721.79" x2="3309.25" y2="720.825" gradientUnits="userSpaceOnUse">
<stop stop-color="white"/>
<stop offset="1" stop-color="white" stop-opacity="0"/>
</linearGradient>
<linearGradient id="paint1_linear" x1="1329.1" y1="326.79" x2="2319.16" y2="325.825" gradientUnits="userSpaceOnUse">
<stop stop-color="white"/>
<stop offset="1" stop-color="white" stop-opacity="0"/>
</linearGradient>
<linearGradient id="paint2_linear" x1="2016.35" y1="895.171" x2="1371.43" y2="1045.86" gradientUnits="userSpaceOnUse">
<stop stop-color="white"/>
<stop offset="1" stop-color="white" stop-opacity="0"/>
</linearGradient>
<linearGradient id="paint3_linear" x1="3795.46" y1="975.271" x2="3464.92" y2="1008.95" gradientUnits="userSpaceOnUse">
<stop stop-color="white"/>
<stop offset="1" stop-color="white" stop-opacity="0"/>
</linearGradient>
</defs>
</svg>
